<?xml version="1.0" standalone="no"?>
<!DOCTYPE svg PUBLIC "-//W3C//DTD SVG 20010904//EN"
 "http://www.w3.org/TR/2001/REC-SVG-20010904/DTD/svg10.dtd">
<svg version="1.0" xmlns="http://www.w3.org/2000/svg"
 width="2011.000000pt" height="814.000000pt" viewBox="0 0 2011.000000 814.000000"
 preserveAspectRatio="xMidYMid meet">

<g transform="translate(0.000000,814.000000) scale(0.100000,-0.100000)"
fill="#000000" stroke="none">
<path d="M4655 7621 c-54 -14 -94 -41 -134 -91 -59 -75 -76 -134 -76 -265 1
-125 9 -155 130 -459 l67 -169 -12 -61 c-106 -558 -493 -1979 -733 -2696 l-52
-155 -205 -7 c-272 -8 -299 -17 -352 -108 -46 -80 -49 -131 -14 -187 77 -119
110 -135 289 -141 95 -3 127 -8 127 -17 0 -17 -140 -406 -152 -421 -4 -6 -58
-13 -126 -17 -266 -12 -539 -101 -757 -245 -38 -26 -111 -87 -161 -137 -142
-142 -204 -263 -245 -481 -24 -129 -20 -181 22 -312 87 -266 392 -348 714
-193 187 90 279 198 438 516 62 125 153 328 218 488 l44 108 50 -7 c48 -6 210
-57 460 -144 1159 -402 2478 -628 4035 -690 317 -13 1222 -13 1600 0 949 32
1788 90 3625 250 248 22 657 57 910 79 1081 95 1950 160 2615 196 151 8 325
17 385 21 106 5 201 12 745 54 140 11 377 28 525 39 262 19 312 24 554 56 104
14 144 26 129 40 -15 15 -247 36 -503 44 -426 15 -1215 21 -1405 10 -91 -5
-298 -16 -460 -24 -574 -30 -1612 -106 -2470 -180 -2343 -203 -3217 -269
-4105 -310 -2125 -98 -3770 25 -5226 390 -271 68 -564 156 -919 275 -195 65
-375 122 -398 126 -24 4 -45 12 -48 18 -2 6 33 115 79 241 l82 230 80 7 c74 6
219 13 870 39 279 11 5610 13 6895 3 781 -6 1042 -2 2095 31 464 15 640 26
1090 65 337 29 537 59 618 91 31 13 36 43 8 58 -61 33 -750 78 -1566 103 -291
9 -1627 13 -4910 14 -4074 2 -5011 7 -5031 26 -2 3 19 76 46 164 225 712 486
1654 626 2257 31 135 33 136 82 15 60 -146 328 -737 497 -1098 213 -451 502
-999 593 -1123 97 -131 181 -160 254 -90 32 30 42 61 58 178 17 127 38 262 81
519 192 1155 448 2011 726 2434 54 81 127 161 231 252 48 42 52 49 52 89 0 36
-6 49 -34 77 -52 52 -97 44 -196 -34 -347 -271 -657 -1060 -901 -2292 -58
-297 -149 -822 -149 -867 0 -43 -19 -23 -80 84 -197 349 -669 1349 -995 2111
l-108 254 22 126 c56 326 63 470 32 595 -24 93 -41 127 -93 183 -29 31 -55 48
-91 59 -28 8 -53 15 -56 14 -3 -1 -19 -4 -36 -8z m62 -307 c18 -71 14 -234 -7
-234 -13 0 -50 143 -50 192 0 55 15 101 32 96 7 -3 18 -27 25 -54z m-214
-3724 c16 -8 30 -24 33 -39 3 -14 7 -32 10 -39 10 -32 -15 -61 -67 -76 -56
-17 -489 -36 -489 -21 0 16 53 171 64 184 14 18 407 11 449 -9z m-703 -2 c0
-7 -12 -48 -27 -90 l-26 -78 -41 0 c-23 1 -75 5 -116 10 -58 6 -78 13 -92 30
-23 29 -23 82 0 103 30 28 302 49 302 25z m-370 -1019 c0 -19 -139 -336 -202
-464 -141 -282 -200 -356 -332 -420 -194 -93 -334 -84 -396 27 -46 82 -26 283
43 411 89 169 314 329 563 402 160 47 324 69 324 44z"/>
<path d="M8004 5611 c-41 -25 -72 -66 -83 -110 -6 -20 -22 -119 -36 -221 -14
-102 -30 -212 -36 -245 -5 -33 -10 -71 -9 -85 0 -14 -4 -34 -9 -45 -5 -11 -19
-90 -30 -175 -11 -85 -39 -292 -62 -460 -47 -354 -48 -420 -5 -456 17 -15 40
-24 62 -24 86 0 145 71 164 195 7 44 16 89 20 100 5 11 23 125 40 254 35 265
60 358 120 437 88 117 264 142 315 44 30 -58 29 -135 -5 -396 -17 -137 -34
-256 -37 -264 -9 -26 -18 -142 -18 -233 0 -85 1 -90 28 -113 38 -32 91 -32
140 1 73 50 84 91 148 550 61 431 62 513 11 618 -58 117 -147 165 -289 154
-99 -7 -168 -41 -252 -122 -69 -66 -89 -79 -76 -47 4 9 7 30 6 46 -1 15 3 34
9 41 6 7 10 26 10 41 0 16 11 103 25 194 37 234 29 304 -40 329 -45 16 -75 14
-111 -8z"/>
<path d="M12434 5620 c-11 -4 -34 -24 -51 -43 -38 -44 -53 -104 -88 -367 -14
-107 -28 -209 -31 -227 l-6 -32 -48 59 c-57 68 -88 91 -150 111 -65 20 -212
18 -277 -4 -154 -53 -298 -230 -352 -432 -12 -44 -26 -89 -31 -100 -17 -40
-30 -154 -30 -273 0 -124 11 -203 36 -250 8 -15 14 -34 14 -43 0 -31 80 -137
126 -168 157 -103 339 -72 504 88 l70 68 0 -71 c0 -91 22 -132 76 -142 59 -11
120 24 145 84 11 26 25 56 30 68 6 11 10 27 8 35 -1 8 0 21 4 29 3 8 24 159
47 335 23 176 45 324 48 330 3 5 5 22 4 38 -1 15 1 33 4 39 4 6 8 25 10 42 3
37 12 109 19 151 20 120 67 453 72 511 7 81 -7 136 -40 159 -23 16 -79 19
-113 5z m-385 -745 c60 -32 71 -45 101 -115 55 -130 33 -364 -49 -528 -48 -98
-164 -182 -248 -182 -46 0 -110 28 -140 61 -27 30 -66 116 -58 128 3 5 1 12
-5 16 -15 9 -12 172 5 259 8 42 30 110 50 152 19 42 35 79 35 84 0 4 7 10 15
14 8 3 15 11 15 18 0 32 140 115 198 117 18 1 54 -10 81 -24z"/>
<path d="M14164 5611 c-65 -40 -86 -89 -109 -263 -9 -68 -21 -132 -26 -143 -5
-11 -9 -31 -9 -45 0 -14 -3 -43 -6 -65 -9 -60 -16 -116 -18 -150 -2 -16 -6
-37 -9 -45 -3 -8 -15 -86 -26 -172 -12 -87 -30 -229 -42 -315 -11 -87 -23
-165 -26 -173 -3 -8 -7 -28 -9 -45 -1 -16 -9 -70 -18 -120 -20 -119 -19 -180
0 -221 42 -89 162 -79 219 19 25 42 47 133 59 242 2 17 6 39 9 50 4 11 9 47
12 80 3 33 15 119 25 190 11 72 33 236 50 365 17 129 35 244 40 255 15 36 63
426 57 469 -4 30 -15 49 -41 73 -42 39 -85 43 -132 14z"/>
<path d="M6878 5554 c-47 -30 -69 -72 -70 -134 -3 -124 109 -159 189 -59 36
45 52 116 34 155 -12 28 -67 64 -96 63 -11 0 -37 -11 -57 -25z"/>
<path d="M7272 5555 c-43 -30 -62 -58 -73 -104 -18 -81 38 -160 104 -147 40 8
107 73 107 102 0 13 4 25 9 29 6 3 6 18 1 35 -5 17 -8 31 -8 33 5 14 -20 50
-42 62 -39 20 -59 18 -98 -10z"/>
<path d="M6971 5130 c-71 -15 -143 -41 -184 -67 -97 -61 -174 -157 -196 -246
-14 -57 -8 -82 27 -119 21 -23 34 -28 74 -28 45 0 49 2 88 51 22 28 40 55 40
59 0 18 75 81 119 102 65 29 185 35 230 11 57 -30 73 -61 75 -143 1 -55 -3
-74 -14 -81 -53 -28 -108 -46 -296 -94 -223 -56 -290 -83 -354 -141 -38 -34
-124 -186 -113 -198 3 -3 0 -13 -8 -22 -18 -22 -19 -195 -1 -216 6 -8 10 -17
8 -19 -3 -2 12 -29 32 -59 67 -99 154 -137 289 -127 46 3 89 13 114 26 22 12
46 21 54 21 8 0 58 29 111 65 53 36 98 65 99 63 1 -2 16 -31 33 -64 40 -80 84
-118 128 -111 41 7 89 42 116 85 19 30 20 42 13 175 -6 131 -4 162 29 394 56
390 48 509 -37 597 -65 66 -131 87 -297 92 -74 2 -155 -1 -179 -6z m239 -694
c0 -51 -30 -180 -54 -229 -32 -68 -91 -129 -157 -163 -44 -23 -67 -28 -126
-29 -63 0 -75 3 -98 25 -36 33 -47 64 -46 125 1 64 3 74 25 108 38 56 99 87
259 128 84 21 159 43 167 48 24 15 30 13 30 -13z"/>
<path d="M9129 5111 c-61 -51 -73 -104 -145 -666 -9 -66 -18 -127 -21 -135 -3
-8 -5 -25 -4 -37 1 -13 -1 -28 -6 -35 -4 -7 -9 -26 -10 -43 -3 -40 -10 -102
-17 -145 -17 -102 -18 -151 -2 -185 25 -52 64 -78 107 -72 81 11 131 77 150
197 6 41 15 84 20 95 5 11 9 31 9 45 -1 30 54 391 71 470 18 82 41 130 93 187
77 86 174 115 261 79 80 -34 88 -113 45 -442 -17 -137 -34 -256 -37 -264 -3
-8 -5 -25 -4 -38 2 -13 -2 -29 -8 -36 -7 -8 -12 -27 -12 -42 0 -16 -2 -55 -5
-87 -7 -69 6 -107 48 -142 72 -61 167 -3 214 130 4 11 6 24 5 29 -1 6 2 19 8
30 5 12 26 147 46 301 20 154 41 309 46 345 32 242 -12 383 -143 456 -49 27
-61 29 -154 29 -97 0 -104 -1 -175 -38 -72 -36 -132 -85 -174 -140 -28 -37
-33 -33 -28 17 12 103 -27 166 -101 166 -31 0 -50 -7 -77 -29z"/>
<path d="M10625 5124 c-38 -8 -93 -27 -123 -41 -86 -41 -205 -161 -217 -220
-2 -10 -8 -31 -15 -48 -15 -39 -4 -98 24 -125 19 -17 33 -21 72 -18 45 3 51 6
91 58 103 130 153 165 255 177 126 15 201 -30 213 -130 10 -75 1 -105 -33
-117 -15 -6 -34 -14 -43 -19 -16 -9 -38 -15 -294 -81 -83 -21 -172 -48 -198
-60 -185 -87 -287 -355 -207 -538 30 -67 110 -139 178 -158 80 -24 186 -14
275 24 38 16 73 34 80 41 6 6 16 11 21 11 6 0 38 20 71 45 68 51 69 51 108
-35 42 -93 104 -118 180 -71 53 32 69 70 68 155 -3 248 -2 277 14 361 52 283
67 519 40 614 -22 71 -82 131 -160 161 -80 30 -295 38 -400 14z m265 -687 c0
-36 -21 -138 -35 -172 -6 -16 -18 -46 -25 -65 -18 -48 -95 -126 -155 -158 -40
-21 -64 -26 -122 -27 -63 0 -75 3 -98 25 -44 41 -58 77 -53 139 3 41 12 67 34
98 16 23 33 42 37 43 4 0 20 9 36 21 15 11 96 38 181 60 84 22 160 44 169 49
25 15 31 12 31 -13z"/>
<path d="M13158 5125 c-244 -60 -412 -267 -483 -595 -10 -48 -16 -123 -16
-210 0 -206 31 -301 132 -403 48 -48 122 -93 164 -101 6 -1 16 -5 22 -9 40
-25 260 -17 328 12 166 72 243 134 298 242 42 81 46 125 16 163 -16 20 -29 26
-61 26 -36 0 -49 -8 -126 -78 -138 -123 -191 -152 -277 -152 -139 0 -213 91
-223 273 l-5 97 305 0 c329 0 383 7 426 52 78 83 81 343 6 491 -29 57 -105
137 -155 162 -83 44 -239 57 -351 30z m180 -236 c47 -23 102 -95 102 -134 0
-12 5 -26 11 -32 5 -5 9 -38 7 -74 l-3 -64 -248 -3 -247 -2 6 27 c26 107 73
186 147 247 73 60 148 72 225 35z"/>
<path d="M4011 2092 c2 -6 20 -21 39 -34 22 -15 36 -33 38 -50 2 -14 -13 -86
-33 -160 -21 -73 -54 -196 -75 -273 -20 -77 -45 -155 -54 -174 -17 -33 -19
-33 -67 -27 -39 5 -49 4 -49 -8 0 -8 8 -17 18 -20 67 -20 245 -66 257 -66 25
0 17 27 -9 34 -52 13 -69 62 -47 132 5 16 26 90 46 164 56 206 67 242 70 238
2 -2 17 -88 34 -193 50 -302 70 -415 76 -425 18 -30 53 4 241 229 109 132 201
235 202 230 2 -5 -10 -60 -28 -122 -17 -61 -40 -146 -52 -187 -51 -188 -56
-195 -128 -184 -57 9 -55 -19 3 -33 23 -6 93 -24 155 -42 117 -32 152 -37 152
-22 0 5 -17 18 -37 28 -50 24 -53 54 -15 191 17 59 42 152 57 207 51 187 77
270 91 284 8 10 30 14 58 12 102 -5 39 27 -138 70 l-49 12 -34 -39 c-18 -21
-106 -128 -195 -236 -90 -108 -169 -197 -177 -197 -8 -1 -12 1 -10 4 3 2 -18
141 -45 307 l-51 303 -80 23 c-102 29 -169 39 -164 24z"/>
<path d="M18786 1958 c-35 -50 -6 -98 58 -98 49 0 76 22 76 63 0 38 -25 57
-75 57 -34 0 -47 -5 -59 -22z"/>
<path d="M16940 1916 c-125 -46 -184 -100 -105 -94 45 3 55 -11 55 -78 0 -28
3 -65 6 -82 l6 -30 -63 5 c-35 3 -82 0 -105 -6 -56 -15 -116 -70 -150 -138
-26 -52 -29 -68 -29 -153 0 -88 2 -99 31 -150 44 -78 99 -114 184 -118 54 -3
73 0 112 21 44 24 46 25 51 6 8 -28 42 -23 127 19 81 40 98 67 43 67 -58 0
-52 -32 -84 490 -7 110 -13 211 -14 225 -2 30 -18 34 -65 16z m-95 -346 c48
-30 62 -76 70 -231 l7 -134 -26 -24 c-76 -71 -184 9 -209 153 -18 109 9 200
73 240 33 21 46 20 85 -4z"/>
<path d="M16247 1862 c-22 -25 -22 -75 1 -95 10 -10 35 -17 55 -17 58 0 89 47
65 97 -11 24 -20 28 -59 31 -34 2 -49 -2 -62 -16z"/>
<path d="M5673 1701 c-31 -14 -49 -33 -71 -70 -30 -52 -44 -113 -102 -426 -18
-93 -38 -180 -46 -192 -7 -12 -26 -23 -41 -25 -52 -6 -34 -25 42 -41 42 -10
86 -17 100 -17 26 0 21 -19 71 250 77 416 94 472 149 486 38 9 83 -21 96 -64
16 -54 -4 -144 -40 -184 -22 -25 -34 -30 -69 -30 -55 1 -57 -25 -5 -59 20 -13
45 -36 56 -50 27 -37 36 -141 20 -220 -22 -110 -102 -178 -95 -81 4 54 -10 72
-57 72 -46 0 -61 -14 -61 -58 0 -69 44 -102 135 -102 101 0 170 56 207 168 36
109 18 207 -50 269 -25 23 -31 33 -19 33 26 0 85 58 98 97 6 19 9 62 7 94 -4
53 -9 64 -43 99 -67 68 -193 91 -282 51z"/>
<path d="M14416 1684 c-32 -19 -62 -34 -67 -34 -5 0 -9 -9 -9 -20 0 -16 7 -20
35 -20 23 0 37 -6 44 -19 6 -10 17 -92 26 -182 9 -90 23 -226 31 -302 15 -153
12 -169 -36 -185 -41 -15 -40 -42 1 -42 32 0 194 18 237 26 28 5 29 34 1 34
-27 0 -55 16 -63 35 -3 9 -10 69 -16 133 -6 64 -13 131 -15 149 -5 25 0 38 25
66 51 59 114 66 140 17 16 -30 41 -238 38 -312 -3 -61 -4 -63 -35 -73 -35 -10
-47 -45 -16 -45 28 0 247 21 260 25 21 7 2 35 -23 35 -36 0 -51 35 -64 150
-21 198 -32 255 -52 289 -23 37 -70 61 -120 61 -40 0 -106 -30 -132 -59 -11
-11 -22 -21 -26 -21 -4 0 -12 55 -19 123 -21 220 -18 207 -54 206 -18 0 -58
-16 -91 -35z"/>
<path d="M18825 1700 c-11 -5 -44 -19 -72 -31 -38 -15 -53 -27 -53 -41 0 -16
6 -19 32 -16 51 5 58 -20 58 -210 0 -160 0 -163 -25 -187 -13 -14 -31 -25 -40
-25 -8 0 -15 -7 -15 -15 0 -13 22 -15 140 -15 114 0 140 3 140 14 0 8 -14 17
-31 21 -19 4 -34 16 -40 32 -5 13 -9 128 -9 254 l0 229 -32 -1 c-18 0 -42 -4
-53 -9z"/>
<path d="M17980 1693 c-8 -3 -30 -19 -47 -36 l-33 -31 0 32 c0 29 -3 32 -30
32 -17 0 -64 -14 -105 -32 -56 -24 -75 -37 -75 -51 0 -16 6 -18 31 -15 49 8
56 -14 62 -210 6 -162 5 -174 -13 -192 -11 -11 -29 -20 -40 -20 -13 0 -20 -7
-20 -19 0 -19 6 -19 113 -15 168 8 172 8 175 27 3 12 -3 17 -22 17 -50 0 -62
34 -69 190 -7 150 -2 174 40 212 17 16 22 16 39 3 23 -18 88 -19 101 -2 19 23
21 67 4 88 -17 21 -82 34 -111 22z"/>
<path d="M18281 1678 c-165 -82 -177 -411 -19 -508 78 -47 199 -44 264 5 70
53 119 190 69 190 -13 0 -28 -15 -44 -44 -31 -57 -90 -85 -144 -70 -75 20
-137 101 -140 182 l-2 42 179 3 179 2 -7 47 c-9 68 -47 127 -99 152 -61 30
-175 29 -236 -1z m135 -47 c27 -17 65 -85 52 -95 -10 -9 -208 -14 -208 -5 0
37 75 119 108 119 9 0 31 -9 48 -19z"/>
<path d="M17365 1671 c-74 -19 -136 -70 -166 -136 -22 -47 -26 -204 -7 -267
14 -48 76 -120 122 -142 22 -10 60 -16 108 -16 107 0 162 38 208 145 24 56 25
81 4 89 -22 8 -31 1 -54 -44 -37 -72 -100 -100 -165 -71 -67 30 -115 94 -130
172 l-7 36 48 7 c26 3 77 6 113 6 36 0 96 3 134 7 61 5 67 8 67 28 0 31 -19
85 -42 118 -39 55 -154 89 -233 68z m59 -65 c29 -12 66 -64 66 -94 0 -10 -92
-22 -166 -22 -48 0 -52 7 -30 48 20 38 58 71 94 81 1 1 17 -5 36 -13z"/>
<path d="M16247 1572 c-53 -25 -77 -41 -74 -52 2 -10 14 -15 39 -14 25 1 39
-4 43 -15 14 -33 36 -361 26 -380 -6 -10 -24 -21 -40 -24 -23 -5 -29 -10 -24
-23 5 -15 20 -16 137 -9 72 4 134 9 139 12 16 10 6 33 -15 33 -56 1 -64 25
-77 230 -19 284 -18 280 -49 280 -15 -1 -62 -17 -105 -38z"/>
<path d="M15796 1555 c-56 -20 -113 -80 -137 -145 -17 -45 -20 -70 -16 -135
10 -173 99 -275 239 -275 82 0 121 15 166 64 42 45 80 141 68 172 -11 28 -44
16 -56 -21 -14 -43 -69 -92 -114 -101 -49 -9 -112 28 -152 88 -27 40 -52 113
-42 123 2 2 62 9 133 15 72 6 148 13 170 15 22 2 44 4 49 4 24 2 -24 130 -61
163 -51 46 -166 62 -247 33z m127 -85 c33 -37 35 -68 5 -74 -13 -3 -58 -7
-102 -10 l-78 -6 6 33 c3 18 21 46 42 66 30 28 41 32 67 27 18 -3 44 -20 60
-36z"/>
<path d="M5034 1545 c-17 -8 -36 -20 -43 -28 -19 -24 -29 -70 -20 -95 7 -18
16 -22 52 -22 50 0 64 12 73 59 6 31 36 61 60 61 7 0 27 -12 44 -27 30 -25 32
-30 28 -80 -3 -29 -7 -55 -9 -57 -2 -2 -46 -11 -97 -20 -109 -19 -192 -55
-218 -94 -12 -18 -18 -46 -18 -85 -1 -55 2 -61 37 -93 33 -31 43 -34 96 -34
32 0 74 7 94 15 37 15 47 12 47 -16 0 -53 83 -65 160 -23 48 26 70 61 45 70
-7 3 -25 -2 -39 -11 -45 -30 -45 -26 19 275 9 41 14 89 11 106 -8 42 -53 82
-111 100 -59 17 -169 17 -211 -1z m166 -277 c-5 -18 -14 -59 -20 -90 -11 -55
-13 -57 -55 -74 -42 -15 -46 -16 -70 0 -50 33 -53 95 -6 140 29 28 92 54 133
55 25 1 26 -1 18 -31z"/>
<path d="M8302 1544 c-26 -18 -30 -74 -7 -98 51 -51 135 -20 135 49 0 40 -29
65 -75 65 -17 0 -41 -7 -53 -16z"/>
<path d="M8510 1538 c-32 -17 -40 -80 -14 -109 21 -23 81 -25 112 -3 25 17 30
69 9 97 -16 23 -76 31 -107 15z"/>
<path d="M15285 1513 c-16 -8 -45 -29 -62 -46 l-33 -31 0 37 c0 35 -2 37 -31
37 -37 0 -182 -77 -176 -93 2 -7 20 -13 40 -15 47 -4 53 -22 68 -226 l13 -159
-23 -18 c-13 -11 -30 -19 -38 -19 -8 0 -13 -7 -11 -17 2 -10 10 -18 18 -18 44
1 238 17 253 21 29 9 20 34 -11 34 -52 0 -61 22 -77 195 l-15 159 26 27 c15
16 42 35 61 44 31 15 36 15 58 1 31 -20 40 -59 55 -223 15 -156 11 -181 -30
-189 -31 -7 -48 -32 -27 -40 8 -3 63 0 123 6 60 5 119 10 132 10 15 0 22 6 22
20 0 14 -7 20 -23 20 -47 0 -59 29 -73 182 -7 79 -16 161 -19 183 -8 51 -39
102 -75 120 -37 19 -107 18 -145 -2z"/>
<path d="M7099 1447 c-90 -48 -121 -175 -74 -299 5 -12 -12 -25 -68 -52 -136
-65 -215 -183 -189 -280 28 -98 93 -136 235 -136 89 0 103 3 159 31 l61 31 24
-31 c43 -55 103 -82 180 -83 83 -1 122 17 164 74 53 74 17 121 -42 54 -39 -44
-79 -48 -129 -11 -39 29 -79 75 -80 91 0 6 10 19 21 30 12 10 57 65 100 120
80 103 93 114 134 114 24 0 43 28 22 34 -6 2 -65 9 -131 16 -135 13 -157 7
-113 -34 31 -29 33 -43 13 -91 -15 -34 -76 -124 -86 -125 -6 0 -71 126 -96
187 l-14 33 67 34 c84 42 118 77 134 138 12 44 11 52 -9 93 -29 61 -78 85
-170 85 -53 0 -79 -5 -113 -23z m174 -59 c27 -32 23 -100 -9 -138 -25 -29 -72
-60 -92 -60 -12 0 -32 78 -32 125 0 29 8 45 35 72 38 38 65 38 98 1z m-213
-342 c0 -7 26 -66 59 -129 66 -131 66 -126 -20 -157 -105 -38 -204 67 -170
180 18 61 131 153 131 106z"/>
<path d="M14027 1398 c-22 -6 -58 -30 -87 -58 -63 -62 -85 -130 -76 -237 14
-167 102 -263 241 -263 123 0 218 91 227 220 3 29 0 35 -19 38 -18 3 -26 -5
-38 -35 -36 -85 -111 -129 -175 -103 -90 37 -149 212 -106 314 38 91 138 102
160 16 10 -40 20 -50 59 -57 99 -16 119 86 30 147 -29 20 -50 25 -107 27 -39
1 -88 -3 -109 -9z"/>
<path d="M8351 1233 c-171 -341 -272 -536 -291 -563 -12 -16 -36 -33 -53 -38
-18 -5 -32 -15 -32 -23 0 -11 27 -16 124 -22 68 -5 130 -6 137 -3 23 9 16 24
-15 31 -16 3 -37 15 -46 25 -17 19 -16 23 24 108 l42 88 102 -4 c174 -7 167
-3 201 -106 33 -98 30 -117 -20 -126 -16 -3 -30 -12 -32 -21 -2 -13 13 -17 95
-22 54 -4 128 -10 166 -13 62 -6 67 -5 67 13 0 13 -11 23 -35 32 -40 14 -63
52 -100 165 -13 39 -58 170 -100 291 -42 121 -85 243 -94 270 -15 41 -23 51
-44 53 -24 3 -31 -6 -96 -135z m98 -227 c23 -65 41 -121 41 -124 0 -6 -202 7
-209 14 -2 2 22 58 55 123 32 66 62 117 66 113 3 -4 25 -60 47 -126z"/>
<path d="M13662 1358 c-7 -7 -40 -10 -86 -9 -86 3 -121 -11 -160 -62 -21 -28
-26 -45 -26 -96 0 -56 3 -64 33 -95 19 -20 71 -50 129 -76 54 -23 105 -51 114
-61 25 -28 22 -78 -5 -101 -53 -42 -138 -6 -182 76 -18 34 -30 46 -47 46 -21
0 -23 -3 -18 -42 3 -24 8 -68 11 -99 l6 -56 118 2 c109 1 122 4 165 29 99 58
115 178 34 254 -14 12 -69 40 -124 62 -138 56 -175 104 -118 149 56 44 119 19
160 -61 20 -39 29 -49 47 -46 12 2 21 8 20 13 -1 6 -4 49 -8 98 -7 81 -9 87
-29 87 -12 0 -27 -5 -34 -12z"/>
<path d="M9828 1328 c-51 -23 -68 -36 -68 -51 0 -16 5 -19 29 -14 18 4 33 1
39 -6 6 -7 12 -51 14 -97 3 -72 1 -84 -12 -80 -8 2 -46 4 -85 4 -113 0 -179
-46 -233 -163 -66 -144 -17 -328 102 -385 49 -23 151 -21 199 4 l37 20 0 -20
c0 -30 47 -26 135 12 55 24 75 37 75 51 0 15 -6 18 -32 15 -53 -5 -58 16 -58
267 0 121 -3 277 -7 348 l-6 127 -31 -1 c-17 0 -61 -14 -98 -31z m-47 -311
c56 -37 64 -65 67 -229 l3 -147 -33 -21 c-47 -29 -81 -25 -124 13 -53 46 -76
105 -77 192 0 88 29 158 82 192 42 28 40 28 82 0z"/>
<path d="M13183 1309 c-7 -7 -43 -11 -90 -10 -132 3 -193 -48 -193 -160 0 -68
25 -106 93 -137 23 -11 72 -33 109 -50 76 -35 105 -72 88 -116 -30 -80 -148
-53 -200 47 -19 35 -31 47 -48 47 -21 0 -23 -3 -18 -42 3 -24 8 -68 11 -99 l6
-56 117 1 c105 1 122 4 162 26 53 30 90 88 90 143 0 80 -44 126 -169 174 -141
54 -183 106 -125 152 54 42 126 14 162 -63 16 -32 28 -46 42 -46 23 0 24 17
13 133 -5 53 -9 67 -22 67 -10 0 -22 -5 -28 -11z"/>
<path d="M12411 1219 c-121 -61 -139 -239 -32 -326 l26 -21 -22 -24 c-47 -50
-55 -108 -19 -141 24 -23 24 -23 5 -47 -31 -40 -59 -97 -59 -123 0 -58 89 -97
221 -97 109 0 183 25 247 84 70 64 91 140 57 206 -28 54 -60 62 -224 59 -80
-2 -152 0 -158 4 -10 6 -10 14 2 38 14 26 20 29 68 29 75 0 123 16 168 57 57
51 73 126 45 206 l-14 37 33 0 c36 0 58 20 53 47 -3 15 -16 18 -83 21 -44 2
-123 5 -175 8 -84 4 -100 2 -139 -17z m148 -45 c49 -41 77 -165 49 -217 -45
-86 -140 -45 -168 71 -15 63 -6 108 28 145 32 34 52 34 91 1z m199 -500 c26
-18 28 -36 5 -70 -47 -72 -239 -101 -319 -49 -29 19 -30 49 -4 92 l19 32 98 4
c54 1 116 4 138 5 24 1 50 -5 63 -14z"/>
<path d="M11940 1193 c-8 -3 -34 -21 -57 -40 -45 -36 -43 -37 -47 17 -2 27
-35 22 -121 -20 -66 -32 -85 -46 -85 -62 0 -18 4 -20 35 -15 28 5 37 2 45 -13
12 -23 36 -350 27 -373 -4 -10 -21 -23 -37 -29 -17 -5 -29 -15 -27 -22 4 -12
190 -12 255 -1 37 7 45 35 9 35 -58 0 -70 36 -83 248 l-7 118 34 28 c67 57
111 57 135 0 21 -49 47 -330 33 -355 -5 -11 -23 -22 -40 -26 -29 -6 -40 -30
-16 -38 6 -3 71 1 142 8 103 9 130 15 130 27 0 9 -11 16 -27 18 -14 2 -32 9
-38 17 -12 15 -26 95 -35 205 -14 183 -30 231 -85 263 -27 16 -108 22 -140 10z"/>
<path d="M6056 1134 c-3 -9 -6 -28 -6 -44 0 -21 6 -29 23 -33 62 -15 288 -49
293 -44 3 2 6 24 7 48 l2 43 -125 22 c-155 28 -186 29 -194 8z"/>
<path d="M11380 1141 c-41 -5 -56 -10 -58 -23 -3 -14 3 -18 27 -18 59 0 66
-21 76 -231 l7 -125 -36 -32 c-78 -69 -136 -48 -150 53 -5 34 -25 315 -26 353
0 10 -20 11 -92 6 -51 -4 -101 -11 -112 -16 -12 -7 -22 -6 -29 1 -6 6 -32 11
-59 11 -38 0 -54 -6 -81 -30 -35 -30 -47 -30 -47 2 0 28 -48 23 -129 -14 -51
-24 -71 -38 -71 -52 0 -16 5 -18 35 -13 27 4 37 2 44 -12 5 -9 12 -84 16 -166
3 -83 8 -160 11 -173 5 -25 -34 -72 -61 -72 -8 0 -15 -7 -15 -15 0 -17 36 -19
193 -8 72 4 97 9 97 20 0 7 -14 16 -31 20 -52 10 -61 36 -66 200 -4 138 -3
150 17 182 17 27 25 32 43 26 12 -4 41 -10 63 -12 35 -4 44 -1 58 18 9 13 16
31 16 41 0 12 8 18 23 18 47 0 55 -23 71 -218 16 -192 25 -224 72 -261 21 -16
41 -21 89 -21 53 0 68 4 103 29 22 16 44 36 48 43 6 9 10 2 14 -22 7 -50 36
-51 132 -4 86 42 99 66 38 72 -19 2 -38 8 -42 14 -3 6 -9 48 -12 92 -4 45 -11
141 -18 214 l-11 132 -46 -2 c-25 -1 -71 -4 -101 -7z"/>
<path d="M8920 1061 c-75 -32 -93 -61 -37 -61 23 0 37 -6 41 -16 10 -26 7
-341 -4 -369 -6 -15 -22 -30 -40 -36 -16 -6 -30 -17 -30 -25 0 -11 27 -14 140
-14 118 0 140 2 140 15 0 8 -9 15 -20 15 -11 0 -29 9 -41 21 -20 20 -20 28
-15 182 l6 162 30 27 c34 32 69 43 105 34 38 -10 47 -59 43 -239 -3 -143 -5
-160 -22 -173 -11 -8 -30 -14 -43 -14 -13 0 -23 -6 -23 -14 0 -11 24 -16 103
-21 132 -9 182 -5 182 15 0 8 -10 16 -23 18 -45 7 -52 34 -51 230 0 151 -3
189 -17 219 -36 74 -124 94 -214 48 -27 -13 -52 -30 -57 -37 -5 -9 -10 -1 -13
22 -5 32 -8 35 -40 37 -19 1 -64 -11 -100 -26z"/>
<path d="M10240 1074 c-45 -20 -86 -59 -113 -109 -19 -34 -22 -56 -22 -155 0
-133 14 -172 86 -233 79 -68 213 -71 291 -6 40 32 88 122 88 163 0 39 -43 36
-60 -4 -16 -39 -70 -86 -108 -95 -59 -12 -147 53 -175 130 -35 94 -37 91 56
98 45 4 126 7 179 7 53 0 99 4 102 8 9 14 -15 101 -38 134 -36 55 -89 78 -176
77 -44 0 -89 -6 -110 -15z m154 -95 c33 -61 21 -69 -94 -69 -100 0 -101 0 -95
23 11 37 39 71 75 89 44 22 87 6 114 -43z"/>
</g>
</svg>
